<svg version="1.0" xmlns="http://www.w3.org/2000/svg"
 width="300.000000pt" height="146.000000pt" viewBox="0 0 300.000000 146.000000"
 preserveAspectRatio="xMidYMid meet">
<metadata>
Created by potrace 1.10, written by Peter Selinger 2001-2011
</metadata>
<g transform="translate(0.000000,146.000000) scale(0.100000,-0.100000)"
fill="#000000" stroke="none">
<path d="M2497 949 c-18 -24 -13 -45 14 -60 14 -7 23 -5 40 12 18 18 19 23 6
42 -20 30 -42 32 -60 6z"/>
<path d="M704 925 c-9 -21 3 -45 21 -45 21 0 30 27 15 45 -16 19 -29 19 -36 0z"/>
<path d="M1534 915 c-8 -21 2 -45 19 -45 20 0 40 27 33 45 -7 19 -45 20 -52 0z"/>
<path d="M1678 789 c-22 -12 -23 -37 -3 -59 14 -15 14 -19 0 -30 -24 -20 -1
-52 33 -44 15 4 33 11 40 17 17 13 15 56 -3 63 -8 4 -12 10 -9 16 6 9 -23 48
-35 48 -3 0 -14 -5 -23 -11z m57 -69 c14 -15 16 -23 7 -32 -17 -17 -42 -1 -42
27 0 30 11 32 35 5z"/>
<path d="M233 743 c-13 -8 -23 -21 -23 -29 0 -18 -71 -6 -87 15 -10 13 -15 14
-32 4 -12 -7 -37 -13 -56 -13 -19 0 -35 -5 -35 -11 0 -6 15 -9 34 -8 19 2 38
0 42 -4 4 -4 0 -7 -9 -7 -24 0 -40 -35 -27 -60 22 -42 78 -13 66 35 -7 27 -5
28 69 25 22 0 52 -9 66 -20 16 -11 31 -15 39 -10 9 5 24 3 40 -5 60 -32 150
-62 150 -50 0 8 -92 52 -137 65 -24 7 -43 17 -43 22 0 5 -5 6 -11 3 -5 -4 -22
-4 -37 0 -24 6 -25 8 -9 17 13 7 22 6 32 -2 12 -10 16 -9 21 4 8 21 -2 46 -18
45 -7 0 -23 -7 -35 -16z m-143 -108 c-13 -16 -40 -9 -40 11 0 7 8 17 17 23 23
12 40 -13 23 -34z"/>
<path d="M1491 736 c-17 -18 -20 -30 -15 -51 9 -35 30 -42 65 -21 16 9 33 14
39 11 20 -12 51 15 48 42 -4 35 -32 52 -58 36 -12 -8 -21 -9 -25 -3 -10 17
-30 11 -54 -14z m98 -21 c-1 -6 -19 -15 -40 -21 -30 -9 -39 -9 -43 2 -3 7 2
18 11 22 21 12 74 10 72 -3z"/>
<path d="M2350 753 c-14 -3 -29 -9 -35 -13 -17 -14 -104 -15 -117 -2 -16 16
-55 15 -65 -1 -10 -17 -80 -29 -88 -16 -4 5 -15 14 -25 19 -16 9 -26 5 -51
-20 -18 -16 -40 -30 -50 -30 -11 0 -19 -4 -19 -10 0 -12 20 -13 39 -1 10 7 22
4 38 -9 27 -21 60 -16 68 10 7 22 75 34 75 13 0 -7 9 -17 20 -23 24 -13 87 5
107 30 10 13 13 13 30 -2 10 -8 33 -19 51 -23 29 -6 38 -3 62 20 28 27 29 27
61 11 28 -14 35 -14 47 -2 24 24 5 38 -42 31 -34 -6 -44 -4 -49 9 -6 16 -12
17 -57 9z"/>
<path d="M1779 729 c-10 -20 -9 -21 11 -16 13 3 39 -1 59 -10 l36 -16 -40 -13
-40 -13 40 2 c35 2 40 5 40 26 0 16 -10 30 -30 42 -41 24 -62 23 -76 -2z"/>
<path d="M2525 730 c-9 -29 12 -50 48 -47 65 5 57 67 -9 67 -24 0 -34 -5 -39
-20z"/>
<path d="M2641 736 c-9 -11 -9 -20 -2 -34 7 -12 7 -22 0 -29 -16 -16 1 -43 27
-43 19 0 24 5 24 24 0 14 -5 28 -12 32 -8 5 -9 2 -5 -9 7 -19 -8 -33 -18 -17
-7 11 12 40 23 38 4 -1 14 1 22 5 36 13 46 12 61 -6 18 -23 45 -18 56 9 9 23
-24 46 -48 34 -23 -13 -76 -13 -84 0 -9 14 -31 12 -44 -4z"/>
<path d="M2850 735 c-13 -16 -6 -51 14 -58 18 -7 67 4 61 13 -3 5 -15 6 -27 2
-13 -3 -19 -1 -15 5 4 6 30 11 58 12 59 1 62 2 53 25 -8 22 -126 23 -144 1z"/>
<path d="M1308 709 c-44 -25 -3 -93 42 -69 26 14 26 56 1 70 -23 12 -22 12
-43 -1z"/>
<path d="M482 661 c-21 -13 -10 -46 16 -49 27 -4 40 22 22 43 -14 17 -20 18
-38 6z"/>
<path d="M737 646 c-35 -28 -33 -59 3 -64 21 -4 23 -2 10 13 -12 14 -12 18 1
26 8 5 16 9 19 9 14 0 102 -99 96 -108 -8 -13 -88 -3 -98 12 -4 6 -6 17 -3 24
3 8 0 12 -7 10 -38 -13 -10 -73 29 -63 12 3 32 0 42 -7 16 -10 23 -9 40 6 19
17 19 20 4 52 -9 19 -25 36 -34 39 -10 3 -21 15 -24 25 -7 21 -32 50 -43 50
-4 -1 -20 -11 -35 -24z"/>
<path d="M2940 651 c0 -14 30 -41 46 -41 20 0 18 3 -16 28 -16 13 -30 18 -30
13z"/>
<path d="M1685 621 c-38 -15 -140 -60 -225 -98 -387 -176 -509 -176 -831 3
-66 36 -123 64 -125 61 -5 -5 18 -22 101 -71 17 -9 71 -37 120 -60 250 -120
416 -105 791 69 43 21 95 43 114 50 19 7 49 20 65 29 17 9 37 16 46 16 9 0 22
7 29 15 19 23 -3 19 -85 -14z"/>
<path d="M1132 628 c-7 -7 -12 -19 -12 -28 0 -23 36 -54 54 -47 9 4 18 2 21
-3 10 -16 44 -11 54 8 11 21 -3 52 -23 52 -8 0 -19 7 -26 15 -15 18 -51 20
-68 3z m74 -39 c18 -21 18 -21 -16 -17 -24 2 -36 9 -38 21 -5 24 30 22 54 -4z"/>
<path d="M603 603 c-18 -6 -16 -40 1 -46 8 -3 20 1 27 9 10 12 9 18 -2 28 -8
8 -20 12 -26 9z"/>
<path d="M902 568 c-19 -19 -14 -38 10 -35 15 1 23 -4 26 -16 3 -16 1 -17 -16
-8 -37 20 -47 5 -12 -17 15 -9 26 -10 40 -2 14 8 20 8 20 0 0 -6 10 -10 23 -8
14 2 22 10 22 23 0 23 -34 33 -46 13 -6 -9 -9 -7 -9 9 0 21 -24 53 -39 53 -4
0 -12 -5 -19 -12z"/>
<path d="M1093 563 c-16 -6 -17 -25 -2 -40 15 -15 39 -5 39 17 0 19 -17 30
-37 23z"/>
<path d="M1034 465 c-4 -9 -2 -21 4 -27 15 -15 44 -1 40 19 -4 23 -36 29 -44
8z"/>
<path d="M647 323 c-12 -11 -8 -40 7 -52 16 -14 42 -5 51 17 5 13 2 12 -15 -3
-15 -14 -23 -16 -32 -7 -18 18 -1 44 23 37 15 -5 19 -4 15 4 -8 12 -39 15 -49
4z"/>
</g>
</svg>